<svg xmlns="http://www.w3.org/2000/svg" height="512pt" version="1.1" viewBox="0 0 512 512" width="512pt">
<g id="surface1">
<path d="M 497 234.574219 L 411.308594 234.574219 C 403.023438 234.574219 396.308594 241.289062 396.308594 249.574219 L 396.308594 330.972656 L 304.199219 330.972656 C 295.914062 330.972656 289.199219 337.6875 289.199219 345.972656 L 289.199219 426.898438 L 175.664062 426.898438 C 167.382812 426.898438 160.664062 433.613281 160.664062 441.898438 L 160.664062 497 C 160.664062 505.285156 167.382812 512 175.664062 512 L 456.835938 512 C 487.253906 512 512 487.253906 512 456.832031 L 512 249.574219 C 512 241.289062 505.28125 234.574219 497 234.574219 Z M 497 234.574219 " style=" stroke:none;fill-rule:nonzero;fill:rgb(45.098039%,73.72549%,100%);fill-opacity:1;" />
<path d="M 497 234.574219 L 411.308594 234.574219 C 403.023438 234.574219 396.308594 241.289062 396.308594 249.574219 L 396.308594 330.972656 L 336.332031 330.972656 L 336.332031 512 L 456.835938 512 C 487.253906 512 512 487.253906 512 456.832031 L 512 249.574219 C 512 241.289062 505.28125 234.574219 497 234.574219 Z M 497 234.574219 " style=" stroke:none;fill-rule:nonzero;fill:rgb(0%,58.431373%,100%);fill-opacity:1;" />
<path d="M 272.777344 298.382812 C 272.625 298.378906 272.46875 298.378906 272.316406 298.382812 L 272.085938 298.382812 C 271.898438 298.382812 271.71875 298.378906 271.535156 298.375 C 271.378906 298.367188 271.222656 298.367188 271.0625 298.367188 L 240.207031 298.367188 C 240.023438 298.363281 239.847656 298.363281 239.664062 298.367188 L 111.398438 298.367188 C 103.113281 298.367188 96.398438 305.082031 96.398438 313.367188 L 96.398438 464.867188 C 96.398438 490.855469 117.542969 512 143.53125 512 C 169.523438 512 190.667969 490.855469 190.667969 464.867188 L 190.667969 392.632812 L 224.933594 392.632812 L 224.933594 409.765625 C 224.933594 435.757812 246.078125 456.898438 272.066406 456.898438 C 298.054688 456.898438 319.199219 435.757812 319.199219 409.765625 L 319.199219 345.5 C 319.199219 319.898438 298.375 298.761719 272.777344 298.382812 Z M 272.777344 298.382812 " style=" stroke:none;fill-rule:nonzero;fill:rgb(0%,35.294118%,69.411765%);fill-opacity:1;" />
<path d="M 272.777344 298.382812 C 272.625 298.378906 272.46875 298.378906 272.316406 298.382812 L 272.085938 298.382812 C 271.898438 298.382812 271.71875 298.378906 271.535156 298.375 C 271.378906 298.367188 271.222656 298.367188 271.0625 298.367188 L 240.207031 298.367188 C 240.023438 298.363281 239.847656 298.363281 239.664062 298.367188 L 190.667969 298.367188 L 190.667969 392.632812 L 224.933594 392.632812 L 224.933594 409.765625 C 224.933594 435.757812 246.078125 456.898438 272.066406 456.898438 C 298.054688 456.898438 319.199219 435.757812 319.199219 409.765625 L 319.199219 345.5 C 319.199219 319.898438 298.375 298.761719 272.777344 298.382812 Z M 272.777344 298.382812 " style=" stroke:none;fill-rule:nonzero;fill:rgb(0%,20.392157%,36.078431%);fill-opacity:1;" />
<path d="M 337.527344 215.796875 L 278.941406 157.210938 C 260.554688 138.820312 225.777344 124.414062 199.765625 124.414062 L 151.566406 124.414062 C 125.554688 124.414062 90.777344 138.820312 72.390625 157.210938 L 13.804688 215.796875 C 4.902344 224.699219 0 236.535156 0 249.125 C 0 261.714844 4.902344 273.550781 13.804688 282.449219 L 45.9375 314.585938 C 54.839844 323.488281 66.675781 328.390625 79.265625 328.390625 C 86.691406 328.390625 93.851562 326.6875 100.304688 323.460938 C 103.050781 326.476562 107.003906 328.367188 111.398438 328.367188 L 239.9375 328.367188 C 239.941406 328.367188 239.949219 328.367188 239.957031 328.367188 C 244.347656 328.367188 248.300781 326.476562 251.042969 323.46875 C 257.492188 326.6875 264.648438 328.390625 272.066406 328.390625 C 284.65625 328.390625 296.492188 323.488281 305.394531 314.585938 L 337.53125 282.449219 C 346.433594 273.550781 351.335938 261.714844 351.335938 249.125 C 351.335938 236.535156 346.433594 224.699219 337.527344 215.796875 Z M 337.527344 215.796875 " style=" stroke:none;fill-rule:nonzero;fill:rgb(100%,81.960784%,16.862745%);fill-opacity:1;" />
<path d="M 337.527344 215.796875 L 278.941406 157.210938 C 260.554688 138.820312 225.777344 124.414062 199.765625 124.414062 L 175.664062 124.414062 L 175.664062 328.367188 L 239.933594 328.367188 C 239.941406 328.367188 239.945312 328.367188 239.953125 328.367188 C 244.347656 328.367188 248.300781 326.476562 251.042969 323.46875 C 257.492188 326.6875 264.648438 328.390625 272.066406 328.390625 C 284.65625 328.390625 296.492188 323.488281 305.394531 314.585938 L 337.527344 282.449219 C 346.429688 273.550781 351.335938 261.714844 351.335938 249.125 C 351.335938 236.535156 346.433594 224.699219 337.527344 215.796875 Z M 337.527344 215.796875 " style=" stroke:none;fill-rule:nonzero;fill:rgb(100%,69.019608%,13.72549%);fill-opacity:1;" />
<path d="M 175.667969 0 C 133.09375 0 98.460938 34.636719 98.460938 77.207031 C 98.460938 119.777344 133.09375 154.414062 175.667969 154.414062 C 218.238281 154.414062 252.871094 119.777344 252.871094 77.207031 C 252.871094 34.636719 218.238281 0 175.667969 0 Z M 175.667969 0 " style=" stroke:none;fill-rule:nonzero;fill:rgb(100%,80.784314%,74.901961%);fill-opacity:1;" />
<path d="M 175.667969 0 C 175.664062 0 175.664062 0 175.664062 0 L 175.664062 154.414062 C 175.664062 154.414062 175.664062 154.414062 175.667969 154.414062 C 218.238281 154.414062 252.871094 119.777344 252.871094 77.207031 C 252.871094 34.636719 218.238281 0 175.667969 0 Z M 175.667969 0 " style=" stroke:none;fill-rule:nonzero;fill:rgb(100%,65.490196%,56.078431%);fill-opacity:1;" />
<path d="M 122.007812 240.914062 C 127.863281 235.058594 127.863281 225.5625 122.007812 219.703125 C 116.148438 213.84375 106.652344 213.847656 100.792969 219.703125 L 81.96875 238.527344 C 79.15625 241.339844 77.574219 245.152344 77.574219 249.132812 C 77.574219 253.109375 79.15625 256.925781 81.96875 259.738281 L 91.382812 269.148438 C 94.617188 272.386719 96.398438 276.6875 96.398438 281.261719 L 96.398438 281.269531 C 96.398438 285.84375 94.617188 290.144531 91.382812 293.378906 C 85.523438 299.238281 85.523438 308.734375 91.382812 314.59375 C 94.3125 317.523438 98.148438 318.988281 101.988281 318.988281 C 105.824219 318.988281 109.664062 317.523438 112.59375 314.59375 C 121.492188 305.695312 126.394531 293.863281 126.398438 281.28125 L 126.398438 281.269531 C 126.398438 281.261719 126.398438 281.253906 126.398438 281.25 C 126.394531 269.230469 121.921875 257.898438 113.769531 249.152344 Z M 122.007812 240.914062 " style=" stroke:none;fill-rule:nonzero;fill:rgb(100%,69.019608%,13.72549%);fill-opacity:1;" />
<path d="M 259.953125 269.152344 L 269.363281 259.738281 C 272.175781 256.925781 273.757812 253.109375 273.757812 249.132812 C 273.757812 245.15625 272.175781 241.339844 269.363281 238.527344 L 250.539062 219.703125 C 244.679688 213.84375 235.183594 213.847656 229.324219 219.703125 C 223.46875 225.5625 223.46875 235.058594 229.324219 240.917969 L 237.5625 249.15625 C 229.425781 257.882812 224.957031 269.1875 224.933594 281.179688 C 224.933594 281.210938 224.933594 281.238281 224.933594 281.269531 C 224.933594 281.296875 224.933594 281.328125 224.933594 281.355469 C 224.957031 293.914062 229.859375 305.71875 238.738281 314.597656 C 241.667969 317.523438 245.503906 318.988281 249.34375 318.988281 C 253.183594 318.988281 257.023438 317.523438 259.949219 314.59375 C 265.808594 308.738281 265.808594 299.238281 259.949219 293.382812 C 256.722656 290.152344 254.941406 285.863281 254.929688 281.300781 C 254.929688 281.289062 254.929688 281.277344 254.929688 281.269531 C 254.929688 281.257812 254.929688 281.246094 254.929688 281.234375 C 254.941406 276.671875 256.726562 272.378906 259.953125 269.152344 Z M 259.953125 269.152344 " style=" stroke:none;fill-rule:nonzero;fill:rgb(100%,55.686275%,11.372549%);fill-opacity:1;" />
</g>
</svg>